<svg xmlns="http://www.w3.org/2000/svg" viewBox="0 0 24 24" width="24" height="24">
  <path d="M12 2a10 10 0 0 0-3.162 19.49c.5.093.682-.217.682-.482v-1.768c-2.782.604-3.373-1.34-3.373-1.34-.455-1.157-1.112-1.464-1.112-1.464-.911-.624.069-.611.069-.611 1.006.070 1.532 1.033 1.532 1.033.892 1.523 2.342 1.083 2.905.829.088-.646.348-1.084.634-1.334-2.22-.252-4.556-1.114-4.556-4.946 0-1.093.391-1.987 1.035-2.684-.103-.252-.448-1.268.099-2.645 0 0 .837-.268 2.747 1.023.797-.221 1.655-.332 2.51-.336.855.004 1.713.115 2.511.336 1.908-1.291 2.744-1.023 2.744-1.023.551 1.377.206 2.393.103 2.645.646.697 1.037 1.591 1.037 2.684 0 3.842-2.339 4.692-4.564 4.941.357.308.674.912.674 1.832v2.718c0 .27.18.576.684.48A10 10 0 0 0 12 2z"/>
</svg>
